<svg width="533.3333333333333" height="533.3333333333333" xmlns="http://www.w3.org/2000/svg" xmlns:svg="http://www.w3.org/2000/svg" xmlns:xlink="http://www.w3.org/1999/xlink">
 <defs>
  <linearGradient id="linearGradient1549">
   <stop stop-color="#37ede9" id="stop1551" offset="0"/>
   <stop stop-color="#0fb0ac" id="stop1553" offset="1"/>
  </linearGradient>
  <linearGradient id="linearGradient1533">
   <stop stop-color="#c52dc7" id="stop1535" offset="0"/>
   <stop stop-color="#821e83" id="stop1537" offset="1"/>
  </linearGradient>
  <linearGradient id="linearGradient1480">
   <stop stop-color="#a9a9a9" id="stop1482" offset="0"/>
   <stop stop-color="#727272" id="stop1484" offset="1"/>
  </linearGradient>
  <linearGradient y2="0.81051" x2="0.16773" y1="0.10559" x1="0.83225" id="linearGradient4386" xlink:href="#linearGradient1549"/>
  <linearGradient y2="0.8914" x2="0.1456" y1="0.16577" x1="0.78666" id="linearGradient4388" xlink:href="#linearGradient1549"/>
  <linearGradient y2="0.07727" x2="0.09781" y1="0.75188" x1="0.80434" id="linearGradient4390" xlink:href="#linearGradient1549"/>
  <linearGradient y2="0.81051" x2="0.16773" y1="0.10559" x1="0.83225" id="linearGradient4506" xlink:href="#linearGradient1533"/>
  <linearGradient y2="0.8914" x2="0.1456" y1="0.16577" x1="0.78666" id="linearGradient4508" xlink:href="#linearGradient1533"/>
  <linearGradient y2="0.07727" x2="0.09781" y1="0.75188" x1="0.80434" id="linearGradient4510" xlink:href="#linearGradient1533"/>
  <linearGradient y2="0.39468" x2="0.1564" y1="0.57082" x1="0.91196" id="linearGradient1504" xlink:href="#linearGradient1480"/>
  <linearGradient y2="0.09172" x2="0.07875" y1="0.83634" x1="0.85485" id="linearGradient1506" xlink:href="#linearGradient1480"/>
  <linearGradient y2="0.04533" x2="0.59742" y1="0.79539" x1="0.47088" id="linearGradient1508" xlink:href="#linearGradient1480"/>
 </defs>
 <metadata id="metadata7">image/svg+xml</metadata>
 <g>
  <title>Layer 1</title>
  <g stroke="null" id="svg_1">
   <g stroke="null" id="use4358" transform="matrix(0.5139889937835248,0.8540687074789369,-0.9172990145320717,0.5490831701341924,378.10746184971987,5.327180939776632) ">
    <path style="--darkreader-inline-fill:#131314;" stroke="null" fill="#000000" fill-opacity="0.37647" stroke-linejoin="bevel" stroke-miterlimit="4" stroke-dashoffset="0" id="path4494" d="m110.6808,177.45838c-0.33786,0.00412 -0.6615,0.02489 -1,0.03241c-12.65869,0.28076 -25.70569,2.94374 -34.31253,7.45773l-62.71874,32.87873c-13.51749,7.08943 -26.125,36.24111 -26.125,51.97699l0,94.42105c0,18.39447 13.45581,36.07141 30.1875,39.65552l94.62502,20.2655c16.73162,3.58417 39.90615,1.18426 48.25,-4.08551l61.875,-39.0719c8.34381,-5.26978 15.0625,-24.30902 15.0625,-42.70346l0,-94.42105c0,-15.44849 -4.23755,-41.87799 -25.03125,-44.90836l-81.40625,-19.55215c-5.81489,-1.39554 -12.53663,-2.02927 -19.40625,-1.9455z"/>
    <path style="--darkreader-inline-fill:#131314;" stroke="null" fill="#000000" fill-opacity="0.37647" stroke-linejoin="bevel" stroke-miterlimit="4" stroke-dashoffset="0" d="m107.36836,180.10386c-0.33783,0.00412 -0.66144,0.02492 -1,0.03244c-12.65866,0.28073 -25.70566,2.94375 -34.31247,7.4577l-62.71875,32.87875c-13.51749,7.08942 -26.125,36.24109 -26.125,51.97696l0,94.42109c0,18.3944 13.45581,36.07141 30.1875,39.65551l94.62497,20.26551c16.73169,3.58416 39.90615,1.18426 48.25,-4.08551l61.875,-39.0719c8.34387,-5.26978 15.0625,-24.30902 15.0625,-42.70349l0,-94.42105c0,-15.44846 -4.23755,-41.87798 -25.03122,-44.90836l-81.40628,-19.55216c-5.81482,-1.39552 -12.53656,-2.02923 -19.40625,-1.94549z" id="path4496"/>
    <path style="--darkreader-inline-fill:#533553;" stroke="null" fill="#9c249d" stroke-linejoin="bevel" stroke-miterlimit="4" stroke-dashoffset="0" id="path4498" d="m104.05598,182.74936c-0.33783,0.00411 -0.66144,0.02491 -1,0.03241c-12.65866,0.28077 -25.70563,2.94376 -34.31249,7.45771l-62.71875,32.87875c-13.51748,7.08945 -26.125,36.24109 -26.125,51.97699l0,94.42102c0,18.39447 13.45582,36.07141 30.1875,39.65558l94.62499,20.2655c16.73172,3.58411 39.90616,1.18421 48.25,-4.08557l61.875,-39.0719c8.34384,-5.26971 15.0625,-24.30896 15.0625,-42.70343l0,-94.42105c0,-15.44848 -4.23755,-41.87799 -25.03125,-44.90835l-81.40625,-19.55219c-5.81482,-1.39552 -12.53659,-2.02923 -19.40625,-1.94546l0,-0.00001z"/>
    <path stroke="null" fill="url(#linearGradient4506)" stroke-linejoin="bevel" stroke-miterlimit="4" stroke-dashoffset="0" d="m9.95181,248.31644l94.89604,20.32794c16.6488,3.56638 30.052,19.74415 30.052,36.27295l0,101.15622c0,16.52881 -13.4032,26.9643 -30.052,23.39795l-94.89604,-20.328c-16.64881,-3.56635 -30.05202,-19.74414 -30.05202,-36.27295l0,-101.15622c0,-16.52881 13.40321,-26.96429 30.05202,-23.39789z" id="path4500"/>
    <path stroke="null" fill="url(#linearGradient4508)" stroke-linejoin="bevel" stroke-miterlimit="4" stroke-dashoffset="0" d="m123.2823,184.66129l81.76715,19.62349c16.69061,4.00563 19.50488,12.80153 6.31,19.72176l-63.89722,33.51168c-13.19489,6.92023 -37.2543,9.26667 -53.94492,5.26102l-81.76716,-19.62347c-16.69055,-4.00562 -19.50479,-12.80152 -6.30991,-19.72176l63.89722,-33.51167c13.1949,-6.92023 37.25429,-9.26667 53.94484,-5.26105z" id="path4502"/>
    <path stroke="null" fill="url(#linearGradient4510)" stroke-linejoin="bevel" stroke-miterlimit="4" stroke-dashoffset="0" d="m152.48945,264.82981l62.82062,-39.67609c8.08264,-5.10482 14.58966,4.09208 14.58966,20.62094l0,101.15619c0,16.52881 -6.50702,33.94513 -14.58966,39.04999l-62.82062,39.67609c-8.0827,5.10479 -14.58972,-4.09211 -14.58972,-20.62091l0,-101.15622c0,-16.52887 6.50702,-33.94513 14.58972,-39.04999z" id="path4504"/>
   </g>
   <g stroke="null" id="g1488">
    <path style="--darkreader-inline-fill:#131314;" stroke="null" fill="#000000" fill-opacity="0.37647" stroke-linejoin="bevel" stroke-miterlimit="4" stroke-dashoffset="0" id="path4474" d="m494.4976,118.07709c-0.17745,-0.28628 -0.36286,-0.55127 -0.54372,-0.83628c-6.76397,-10.65724 -15.91276,-20.33808 -24.47721,-25.21035l-62.39638,-35.51293c-13.45096,-7.65218 -46.67191,-2.41318 -61.10638,6.22711l-86.61234,51.84503c-16.87322,10.10009 -26.17215,31.29841 -20.85996,47.55638l30.04671,91.94367c5.31214,16.25802 19.425,34.7329 28.54759,38.96558l67.64371,31.39172c9.12257,4.23269 30.04057,-0.48322 46.91379,-10.58336l86.61233,-51.84494c14.17086,-8.48255 36.23657,-26.61366 28.32862,-46.03689l-23.90674,-80.26225c-1.70868,-5.73259 -4.58228,-11.82132 -8.19,-17.6425z"/>
    <path style="--darkreader-inline-fill:#131314;" stroke="null" fill="#000000" fill-opacity="0.37647" stroke-linejoin="bevel" stroke-miterlimit="4" stroke-dashoffset="0" d="m490.36833,116.70066c-0.1774,-0.28628 -0.36281,-0.55127 -0.54372,-0.83626c-6.76396,-10.65724 -15.9127,-20.33806 -24.47721,-25.21035l-62.39638,-35.51295c-13.45096,-7.65219 -46.67191,-2.4132 -61.10638,6.22715l-86.61233,51.84499c-16.87322,10.10009 -26.17213,31.29836 -20.85992,47.55638l30.04665,91.94367c5.31218,16.25802 19.42503,34.7329 28.54763,38.96553l67.64367,31.39183c9.12263,4.23265 30.04057,-0.48328 46.91386,-10.58336l86.61227,-51.84499c14.17086,-8.48254 36.2366,-26.61371 28.32867,-46.03687l-23.90681,-80.26227c-1.70863,-5.73253 -4.58223,-11.82132 -8.19,-17.6425z" id="path4476"/>
    <path style="--darkreader-inline-fill:#696663;" stroke="null" fill="#919191" stroke-linejoin="bevel" stroke-miterlimit="4" stroke-dashoffset="0" id="path4478" d="m486.23911,115.32423c-0.1774,-0.28631 -0.36281,-0.5512 -0.54376,-0.83626c-6.76392,-10.65724 -15.9127,-20.33804 -24.47718,-25.21029l-62.39638,-35.51299c-13.45096,-7.65218 -46.67191,-2.41318 -61.10642,6.22713l-86.61231,51.84501c-16.87322,10.10007 -26.17213,31.29841 -20.85994,47.55643l30.04667,91.94367c5.31218,16.25802 19.42505,34.73282 28.54763,38.96553l67.64363,31.39178c9.12263,4.23263 30.04063,-0.48328 46.91386,-10.58336l86.61233,-51.84499c14.17086,-8.4825 36.23657,-26.61366 28.32862,-46.03689l-23.90676,-80.26227c-1.70868,-5.73252 -4.58223,-11.82131 -8.19,-17.6425z"/>
    <path stroke="null" fill="url(#linearGradient1504)" stroke-linejoin="bevel" stroke-miterlimit="4" stroke-dashoffset="0" d="m377.72611,70.95461l30.12874,92.20945c5.28589,16.17747 -2.66482,36.50766 -17.82674,45.58335l-92.79048,55.5432c-15.16184,9.07564 -31.6234,3.35832 -36.90929,-12.81917l-30.12874,-92.20943c-5.28588,-16.17743 2.66482,-36.50763 17.82672,-45.58337l92.7905,-55.54313c15.16191,-9.07573 31.62345,-3.35841 36.90929,12.81909z" id="path4480"/>
    <path stroke="null" fill="url(#linearGradient1506)" stroke-linejoin="bevel" stroke-miterlimit="4" stroke-dashoffset="0" d="m494.3679,132.79509l24.02683,80.60975c4.90445,16.45437 -1.71756,23.68757 -14.84748,16.21803l-63.58267,-36.17192c-13.12992,-7.46959 -27.64859,-26.72958 -32.55302,-43.18393l-24.02684,-80.60975c-4.90443,-16.45431 1.71753,-23.68755 14.84745,-16.218l63.58272,36.17194c13.12992,7.46953 27.64854,26.72958 32.55302,43.18387z" id="path4482"/>
    <path stroke="null" fill="url(#linearGradient1508)" stroke-linejoin="bevel" stroke-miterlimit="4" stroke-dashoffset="0" d="m435.8412,201.75883l68.68394,31.86761c8.83708,4.10022 3.7453,14.70754 -11.41656,23.78323l-92.79048,55.54319c-15.16188,9.07569 -34.4824,13.08122 -43.31947,8.98105l-68.68394,-31.86769c-8.83712,-4.10015 -3.74535,-14.70747 11.41655,-23.78321l92.7905,-55.54313c15.16186,-9.07569 34.48233,-13.08122 43.31947,-8.98105z" id="path4484"/>
   </g>
   <g stroke="null" id="use4370" transform="matrix(0.5139889937835248,0.8540687074789369,-0.9172990145320717,0.5490831701341924,960.9998540506067,5.327180939776632) ">
    <path style="--darkreader-inline-fill:#131314;" stroke="null" fill="#000000" fill-opacity="0.37647" stroke-linejoin="bevel" stroke-miterlimit="4" stroke-dashoffset="0" id="path4374" d="m-44.17428,590.69156c-0.33786,0.00409 -0.66147,0.02491 -1,0.03241c-12.65869,0.28077 -25.70568,2.94373 -34.3125,7.45777l-62.71875,32.87866c-13.51748,7.08948 -26.125,36.24115 -26.125,51.97705l0,94.42102c0,18.39447 13.45582,36.07141 30.1875,39.65552l94.625,20.2655c16.73166,3.58417 39.90616,1.18427 48.25,-4.08551l61.875,-39.0719c8.34382,-5.26977 15.0625,-24.30902 15.0625,-42.70343l0,-94.42108c0,-15.44848 -4.23754,-41.87799 -25.03125,-44.90838l-81.40625,-19.55213c-5.81488,-1.39551 -12.53659,-2.0293 -19.40625,-1.94549l0,-0.00001z"/>
    <path style="--darkreader-inline-fill:#131314;" stroke="null" fill="#000000" fill-opacity="0.37647" stroke-linejoin="bevel" stroke-miterlimit="4" stroke-dashoffset="0" d="m-47.48668,593.33701c-0.33783,0.00415 -0.66144,0.02496 -1,0.03247c-12.65867,0.28076 -25.70566,2.94373 -34.3125,7.45771l-62.71874,32.87872c-13.51749,7.08948 -26.125,36.24109 -26.125,51.97699l0,94.42108c0,18.39441 13.45581,36.07141 30.1875,39.65552l94.62499,20.2655c16.73168,3.58417 39.90615,1.18427 48.25,-4.08551l61.875,-39.0719c8.34384,-5.26977 15.0625,-24.30902 15.0625,-42.70349l0,-94.42108c0,-15.44843 -4.23755,-41.87793 -25.03125,-44.90833l-81.40625,-19.55212c-5.81485,-1.39551 -12.53659,-2.0293 -19.40625,-1.94556z" id="path4376"/>
    <path style="--darkreader-inline-fill:#4e7f7e;" stroke="null" fill="#15e8e3" stroke-linejoin="bevel" stroke-miterlimit="4" stroke-dashoffset="0" id="path4378" d="m-50.79906,595.98252c-0.33786,0.00415 -0.66144,0.0249 -1,0.03247c-12.65869,0.28076 -25.70566,2.94373 -34.3125,7.45764l-62.71875,32.87879c-13.51749,7.08947 -26.125,36.24108 -26.125,51.97699l0,94.42102c0,18.39447 13.45581,36.07141 30.1875,39.65558l94.625,20.2655c16.73169,3.5841 39.90616,1.1842 48.25,-4.08557l61.875,-39.0719c8.34384,-5.26972 15.0625,-24.30896 15.0625,-42.70343l0,-94.42108c0,-15.44849 -4.23755,-41.87793 -25.03125,-44.90833l-81.40625,-19.55218c-5.81485,-1.39551 -12.53659,-2.02924 -19.40625,-1.9455z"/>
    <path stroke="null" fill="url(#linearGradient4386)" stroke-linejoin="bevel" stroke-miterlimit="4" stroke-dashoffset="0" d="m-144.90325,664.54966l94.89603,20.32788c16.6488,3.56641 30.052,19.74414 30.052,36.27295l0,101.15625c0,16.52881 -13.4032,26.96429 -30.052,23.39795l-94.89603,-20.32801c-16.6488,-3.56634 -30.05202,-19.74414 -30.05202,-36.27294l0,-101.15625c0,-16.52881 13.40322,-26.96424 30.05202,-23.39783z" id="path4380"/>
    <path stroke="null" fill="url(#linearGradient4388)" stroke-linejoin="bevel" stroke-miterlimit="4" stroke-dashoffset="0" d="m-31.57274,597.89451l81.76715,19.62347c16.69061,4.00562 19.50485,12.80151 6.30996,19.72174l-63.89721,33.51172c-13.19489,6.92017 -37.25431,9.2666 -53.94492,5.26099l-81.76715,-19.62348c-16.69055,-4.00561 -19.50479,-12.80151 -6.30991,-19.72174l63.89722,-33.51172c13.19489,-6.92016 37.2543,-9.2666 53.94486,-5.26098z" id="path4382"/>
    <path stroke="null" fill="url(#linearGradient4390)" stroke-linejoin="bevel" stroke-miterlimit="4" stroke-dashoffset="0" d="m-2.36559,678.06296l62.82059,-39.67602c8.08267,-5.10486 14.58969,4.09204 14.58969,20.62091l0,101.15619c0,16.52881 -6.50702,33.94513 -14.58969,39.04999l-62.82059,39.67608c-8.0827,5.1048 -14.58972,-4.0921 -14.58972,-20.62091l0,-101.15619c0,-16.52893 6.50702,-33.94519 14.58972,-39.05005z" id="path4384"/>
   </g>
  </g>
 </g>
</svg>