<svg width="533.3333333333333" height="533.3333333333333" xmlns="http://www.w3.org/2000/svg" xmlns:svg="http://www.w3.org/2000/svg" xmlns:xlink="http://www.w3.org/1999/xlink">
 <defs>
  <linearGradient id="linearGradient1533">
   <stop offset="0" id="stop1535" stop-color="#c52dc7"/>
   <stop offset="1" id="stop1537" stop-color="#821e83"/>
  </linearGradient>
  <linearGradient xlink:href="#linearGradient1533" id="linearGradient4506" x1="0.83225" y1="0.10559" x2="0.16773" y2="0.81051"/>
  <linearGradient xlink:href="#linearGradient1533" id="linearGradient4508" x1="0.78666" y1="0.16577" x2="0.1456" y2="0.8914"/>
  <linearGradient xlink:href="#linearGradient1533" id="linearGradient4510" x1="0.80434" y1="0.75188" x2="0.09781" y2="0.07727"/>
 </defs>
 <metadata id="metadata7">image/svg+xml</metadata>
 <g>
  <title>Layer 1</title>
  <g transform="matrix(0.7231969148945276,1.2016986002172296,-1.2906654137905176,0.7725754042678945,86.6035705805593,-238.9773060760138) " id="use4358">
   <path d="m377.74664,-56.07128c-0.33786,0.00412 -0.6615,0.02489 -1,0.03241c-12.65869,0.28076 -25.70569,2.94374 -34.31253,7.45773l-62.71874,32.87873c-13.51749,7.08943 -26.125,36.24111 -26.125,51.97699l0,94.42105c0,18.39447 13.45581,36.07141 30.1875,39.65552l94.62502,20.2655c16.73162,3.58417 39.90615,1.18426 48.25,-4.08551l61.875,-39.0719c8.34381,-5.26978 15.0625,-24.30902 15.0625,-42.70346l0,-94.42105c0,-15.44849 -4.23755,-41.87799 -25.03125,-44.90836l-81.40625,-19.55215c-5.81489,-1.39554 -12.53663,-2.02927 -19.40625,-1.9455z" id="path4494" stroke-dashoffset="0" stroke-miterlimit="4" stroke-linejoin="bevel" fill-opacity="0.37647" fill="#000000"/>
   <path id="path4496" d="m374.4342,-53.4258c-0.33783,0.00412 -0.66144,0.02492 -1,0.03244c-12.65866,0.28073 -25.70566,2.94375 -34.31247,7.4577l-62.71875,32.87875c-13.51749,7.08942 -26.125,36.24109 -26.125,51.97696l0,94.42109c0,18.3944 13.45581,36.07141 30.1875,39.65551l94.62497,20.26551c16.73169,3.58416 39.90615,1.18426 48.25,-4.08551l61.875,-39.0719c8.34387,-5.26978 15.0625,-24.30902 15.0625,-42.70349l0,-94.42105c0,-15.44846 -4.23755,-41.87798 -25.03122,-44.90836l-81.40628,-19.55216c-5.81482,-1.39552 -12.53656,-2.02923 -19.40625,-1.94549z" stroke-dashoffset="0" stroke-miterlimit="4" stroke-linejoin="bevel" fill-opacity="0.37647" fill="#000000"/>
   <path d="m371.12182,-50.7803c-0.33783,0.00411 -0.66144,0.02491 -1,0.03241c-12.65866,0.28077 -25.70563,2.94376 -34.31249,7.45771l-62.71875,32.87875c-13.51748,7.08945 -26.125,36.24109 -26.125,51.97699l0,94.42102c0,18.39447 13.45582,36.07141 30.1875,39.65558l94.62499,20.2655c16.73172,3.58411 39.90616,1.18421 48.25,-4.08557l61.875,-39.0719c8.34384,-5.26971 15.0625,-24.30896 15.0625,-42.70343l0,-94.42105c0,-15.44848 -4.23755,-41.87799 -25.03125,-44.90835l-81.40625,-19.55219c-5.81482,-1.39552 -12.53659,-2.02923 -19.40625,-1.94546l0,-0.00001z" id="path4498" stroke-dashoffset="0" stroke-miterlimit="4" stroke-linejoin="bevel" fill="#9c249d"/>
   <path id="path4500" d="m277.01765,14.78678l94.89604,20.32794c16.6488,3.56638 30.052,19.74415 30.052,36.27295l0,101.15622c0,16.52881 -13.4032,26.9643 -30.052,23.39795l-94.89604,-20.328c-16.64881,-3.56635 -30.05202,-19.74414 -30.05202,-36.27295l0,-101.15622c0,-16.52881 13.40321,-26.96429 30.05202,-23.39789z" stroke-dashoffset="0" stroke-miterlimit="4" stroke-linejoin="bevel" fill="url(#linearGradient4506)"/>
   <path id="path4502" d="m390.34814,-48.86837l81.76715,19.62349c16.69061,4.00563 19.50488,12.80153 6.31,19.72176l-63.89722,33.51168c-13.19489,6.92023 -37.2543,9.26667 -53.94492,5.26102l-81.76716,-19.62347c-16.69055,-4.00562 -19.50479,-12.80152 -6.30991,-19.72176l63.89722,-33.51167c13.1949,-6.92023 37.25429,-9.26667 53.94484,-5.26105z" stroke-dashoffset="0" stroke-miterlimit="4" stroke-linejoin="bevel" fill="url(#linearGradient4508)"/>
   <path id="path4504" d="m419.55529,31.30015l62.82062,-39.67609c8.08264,-5.10482 14.58966,4.09208 14.58966,20.62094l0,101.15619c0,16.52881 -6.50702,33.94513 -14.58966,39.04999l-62.82062,39.67609c-8.0827,5.10479 -14.58972,-4.09211 -14.58972,-20.62091l0,-101.15622c0,-16.52887 6.50702,-33.94513 14.58972,-39.04999z" stroke-dashoffset="0" stroke-miterlimit="4" stroke-linejoin="bevel" fill="url(#linearGradient4510)"/>
  </g>
 </g>
</svg>